<svg xmlns="http://www.w3.org/2000/svg" version="1.1" viewBox="3.5 3 64 64" xml:space="preserve"><path d="M42.877,4.867c-3.202-0.925-7.442-0.848-7.442-0.848s-4.24-0.077-7.442,0.848c0,0-2.03,13.723-1.629,21.279  s3.597,10.794,5.139,12.181c1.542,1.388,2.776,2.621,2.621,11.565c-0.154,8.943,1.234,12.952-2.621,13.723  c-3.855,0.771-5.397,0.54-5.32,2.082c0.077,1.542,18.426,1.542,18.503,0c0.077-1.542-1.465-1.311-5.32-2.082  c-3.855-0.771-2.467-4.78-2.621-13.723c-0.154-8.943,1.079-10.177,2.621-11.565c1.542-1.388,4.738-4.626,5.139-12.181  C44.906,18.59,42.877,4.867,42.877,4.867z"/></svg>